<svg xmlns="http://www.w3.org/2000/svg" version="1.1" xmlns:xlink="http://www.w3.org/1999/xlink" width="512" height="512" x="0" y="0" viewBox="0 0 512 512" style="enable-background:new 0 0 512 512" xml:space="preserve"><g><path d="M501 207.353H395.137M395.137 322.569H501M11 174.964h85.707v56.012H11M11 286.988h85.707V343H11" style="stroke-width:22;stroke-linejoin:round;stroke-miterlimit:10;" fill="none" stroke="#964586" stroke-width="22" stroke-linejoin="round" stroke-miterlimit="10" data-original="#33cccc" opacity="1"></path><path d="M184.707 105.949h65.856M184.707 156.897h65.856M184.707 207.846h65.856M184.707 258.794h65.856M344.85 136.68V71.996" style="stroke-width:22;stroke-linecap:round;stroke-linejoin:round;stroke-miterlimit:10;" fill="none" stroke="#964586" stroke-width="22" stroke-linecap="round" stroke-linejoin="round" stroke-miterlimit="10" data-original="#33cccc" opacity="1"></path><path d="M401.922 466H446v-43.338c0-20.064-14.865-37.024-34.756-39.655l-51.036-6.749-81.328-66.515H127.878L66 376.258V466h31.679M321.922 466H177.679" style="stroke-width:22;stroke-linejoin:round;stroke-miterlimit:10;" fill="none" stroke="#964586" stroke-width="22" stroke-linejoin="round" stroke-miterlimit="10" data-original="#000000"></path><circle cx="137.679" cy="466" r="35" style="stroke-width:22;stroke-linecap:round;stroke-linejoin:round;stroke-miterlimit:10;" fill="none" stroke="#964586" stroke-width="22" stroke-linecap="round" stroke-linejoin="round" stroke-miterlimit="10" data-original="#000000"></circle><circle cx="361.922" cy="466" r="35" style="stroke-width:22;stroke-linecap:round;stroke-linejoin:round;stroke-miterlimit:10;" fill="none" stroke="#964586" stroke-width="22" stroke-linecap="round" stroke-linejoin="round" stroke-miterlimit="10" data-original="#000000"></circle><path d="M66 376.258h294.208M205.104 309.743v66.515M140.707 309.743V55h153.856v267.569M171.803 55V11h91.664v44" style="stroke-width:22;stroke-linejoin:round;stroke-miterlimit:10;" fill="none" stroke="#964586" stroke-width="22" stroke-linejoin="round" stroke-miterlimit="10" data-original="#000000"></path><path d="M294.563 138.68h100.574v241.892M446 431h55V98.922H395.137v39.758M66 431H11V130.964l129.707-30" style="stroke-width:22;stroke-linejoin:round;stroke-miterlimit:10;" fill="none" stroke="#964586" stroke-width="22" stroke-linejoin="round" stroke-miterlimit="10" data-original="#000000"></path></g></svg>