<svg xmlns="http://www.w3.org/2000/svg" version="1.1" xmlns:xlink="http://www.w3.org/1999/xlink" width="512" height="512" x="0" y="0" viewBox="0 0 512 512" style="enable-background:new 0 0 512 512" xml:space="preserve" class=""><g><path d="M212.818 405.121H75.021C39.663 405.121 11 376.458 11 341.1c0-35.358 28.663-64.021 64.021-64.021h9.492" style="stroke-width:22;stroke-linejoin:round;stroke-miterlimit:10;" fill="none" stroke="#964586" stroke-width="22" stroke-linejoin="round" stroke-miterlimit="10" data-original="#33cccc" opacity="1"></path><path d="M441.08 171.663 226.04 11 11 171.663h73.514L226.04 65.924l141.527 105.739z" style="stroke-width:22;stroke-linecap:round;stroke-linejoin:round;stroke-miterlimit:10;" fill="none" stroke="#964586" stroke-width="22" stroke-linecap="round" stroke-linejoin="round" stroke-miterlimit="10" data-original="#000000" class=""></path><path d="M367.567 277.612V171.663M84.514 171.663v145.415H269.61" style="stroke-width:22;stroke-linejoin:round;stroke-miterlimit:10;" fill="none" stroke="#964586" stroke-width="22" stroke-linejoin="round" stroke-miterlimit="10" data-original="#000000" class=""></path><path d="M188.798 317.078V210.186h74.485v106.892M307.033 71.512V19.867h44v84.519M256.818 354.352l26.336-76.74h146.738l26.337 76.74M212.046 453.06v-56.375c0-21.818 17.687-39.504 39.504-39.504h209.945c21.818 0 39.504 17.687 39.504 39.504v56.375H212.046zM253.154 501h-7.94c-11.046 0-20-8.954-20-20v-27.94h47.939V481c.001 11.046-8.954 20-19.999 20zM467.832 501h-7.94c-11.046 0-20-8.954-20-20v-27.94h47.94V481c0 11.046-8.954 20-20 20z" style="stroke-width:22;stroke-linejoin:round;stroke-miterlimit:10;" fill="none" stroke="#964586" stroke-width="22" stroke-linejoin="round" stroke-miterlimit="10" data-original="#000000" class=""></path><path d="M256.046 401.182h0M457 401.182h0" style="stroke-width:22;stroke-linecap:round;stroke-linejoin:round;stroke-miterlimit:10;" fill="none" stroke="#964586" stroke-width="22" stroke-linecap="round" stroke-linejoin="round" stroke-miterlimit="10" data-original="#000000" class=""></path><path d="M310.349 409.06h92.349v44h-92.349z" style="stroke-width:22;stroke-linejoin:round;stroke-miterlimit:10;" fill="none" stroke="#964586" stroke-width="22" stroke-linejoin="round" stroke-miterlimit="10" data-original="#000000" class=""></path></g></svg>