<svg xmlns="http://www.w3.org/2000/svg" version="1.1" xmlns:xlink="http://www.w3.org/1999/xlink" width="512" height="512" x="0" y="0" viewBox="0 0 512 512" style="enable-background:new 0 0 512 512" xml:space="preserve" class=""><g><path d="M259.954 110.694h170.288c39.079 0 70.758 31.68 70.758 70.758v.094c0 39.079-31.68 70.758-70.758 70.758H81.758C42.68 252.305 11 283.984 11 323.063s31.68 70.758 70.758 70.758h267.668" style="stroke-width:22;stroke-linejoin:round;stroke-miterlimit:10;" fill="none" stroke="#964586" stroke-width="22" stroke-linejoin="round" stroke-miterlimit="10" data-original="#33cccc" opacity="1"></path><circle cx="425.213" cy="393.822" r="25.812" style="stroke-width:22;stroke-linejoin:round;stroke-miterlimit:10;" fill="none" stroke="#964586" stroke-width="22" stroke-linejoin="round" stroke-miterlimit="10" data-original="#33cccc" opacity="1"></circle><path d="M41.718 77.74 72.698 11h125.558l30.979 66.74M11 166.448v-55.879c0-16.569 13.431-30 30-30h188.954c16.569 0 30 13.431 30 30v55.879H11zM52.108 210.388h-7.94c-11.046 0-20-8.954-20-20v-23.94h47.94v23.94c0 11.045-8.955 20-20 20zM226.786 210.388h-7.939c-11.046 0-20-8.954-20-20v-23.94h47.939v23.94c0 11.045-8.954 20-20 20z" style="stroke-width:22;stroke-linejoin:round;stroke-miterlimit:10;" fill="none" stroke="#964586" stroke-width="22" stroke-linejoin="round" stroke-miterlimit="10" data-original="#000000" class=""></path><path d="M65 123.509h0M205.954 123.509h0M162.034 123.509H108.92" style="stroke-width:22;stroke-linecap:round;stroke-linejoin:round;stroke-miterlimit:10;" fill="none" stroke="#964586" stroke-width="22" stroke-linecap="round" stroke-linejoin="round" stroke-miterlimit="10" data-original="#000000" class=""></path><path d="M478.803 447.411 425.213 501l-53.589-53.589c-29.596-29.596-29.596-77.582 0-107.178 29.597-29.597 77.582-29.597 107.178 0 29.597 29.596 29.597 77.581.001 107.178z" style="stroke-width:22;stroke-linejoin:round;stroke-miterlimit:10;" fill="none" stroke="#964586" stroke-width="22" stroke-linejoin="round" stroke-miterlimit="10" data-original="#000000" class=""></path></g></svg>