<svg xmlns="http://www.w3.org/2000/svg" version="1.1" xmlns:xlink="http://www.w3.org/1999/xlink" width="512" height="512" x="0" y="0" viewBox="0 0 512 512" style="enable-background:new 0 0 512 512" xml:space="preserve" class=""><g><ellipse cx="211.009" cy="286.758" rx="24.484" ry="24.497" style="stroke-width:22;stroke-linecap:round;stroke-linejoin:round;stroke-miterlimit:10;" fill="none" stroke="#964586" stroke-width="22" stroke-linecap="round" stroke-linejoin="round" stroke-miterlimit="10" data-original="#000000"></ellipse><path d="M449.492 377.525v9.648M449.492 437.863v9.648M484.35 412.518h-9.61M424.244 412.518h-9.611M479.545 307.943v42.933M501 329.41h-42.91" style="stroke-width:22;stroke-linecap:round;stroke-linejoin:round;stroke-miterlimit:10;" fill="none" stroke="#964586" stroke-width="22" stroke-linecap="round" stroke-linejoin="round" stroke-miterlimit="10" data-original="#33cccc" opacity="1"></path><path d="M386.704 184.977c15.503 28.43 24.314 61.038 24.314 95.705 0 110.52-89.547 200.113-200.009 200.113S11 391.202 11 280.682 100.547 80.569 211.009 80.569c20.679 0 40.625 3.14 59.387 8.969" style="stroke-width:22;stroke-linecap:round;stroke-linejoin:round;stroke-miterlimit:10;" fill="none" stroke="#964586" stroke-width="22" stroke-linecap="round" stroke-linejoin="round" stroke-miterlimit="10" data-original="#000000"></path><ellipse cx="211.009" cy="280.682" rx="140.381" ry="140.454" style="stroke-width:22;stroke-linecap:round;stroke-linejoin:round;stroke-miterlimit:10;" fill="none" stroke="#964586" stroke-width="22" stroke-linecap="round" stroke-linejoin="round" stroke-miterlimit="10" data-original="#000000"></ellipse><path d="M93.787 217.433h234.444M175.998 409.663a105.912 105.912 0 0 0 1.571-18.24c0-56.727-44.757-102.997-100.866-105.389M344.37 286.079c-55.665 2.868-99.92 48.937-99.92 105.344 0 6.09.514 12.058 1.506 17.863" style="stroke-width:22;stroke-linecap:round;stroke-linejoin:round;stroke-miterlimit:10;" fill="none" stroke="#964586" stroke-width="22" stroke-linecap="round" stroke-linejoin="round" stroke-miterlimit="10" data-original="#000000"></path><ellipse cx="348.93" cy="110.112" rx="78.534" ry="78.907" style="stroke-width:22;stroke-linecap:round;stroke-linejoin:round;stroke-miterlimit:10;" fill="none" stroke="#964586" stroke-width="22" stroke-linecap="round" stroke-linejoin="round" stroke-miterlimit="10" data-original="#33cccc" opacity="1"></ellipse><path d="m329.565 110.112 18.366 12.673 24.47-27.968" style="stroke-width:22;stroke-linecap:round;stroke-linejoin:round;stroke-miterlimit:10;" fill="none" stroke="#964586" stroke-width="22" stroke-linecap="round" stroke-linejoin="round" stroke-miterlimit="10" data-original="#33cccc" opacity="1"></path></g></svg>