<svg xmlns="http://www.w3.org/2000/svg" version="1.1" xmlns:xlink="http://www.w3.org/1999/xlink" width="512" height="512" x="0" y="0" viewBox="0 0 32 32" style="enable-background:new 0 0 512 512" xml:space="preserve" class=""><g><path d="M28 13h1a1 1 0 0 0 0-2h-2.434l-1.544-2.573A5.024 5.024 0 0 0 20.735 6h-9.47c-1.746 0-3.389.93-4.287 2.427L5.434 11H3a1 1 0 0 0 0 2h1l-.6.8A7.042 7.042 0 0 0 2 18v5c0 1.654 1.346 3 3 3h2c1.654 0 3-1.346 3-3h12c0 1.654 1.346 3 3 3h2c1.654 0 3-1.346 3-3v-5a7.04 7.04 0 0 0-1.4-4.2zM8.693 9.457A3.015 3.015 0 0 1 11.265 8h9.471c1.048 0 2.033.558 2.572 1.457l1.344 2.24-.695.463a4.987 4.987 0 0 1-2.774.84H10.816c-.99 0-1.949-.29-2.773-.839l-.695-.464 1.344-2.241zM28.001 23c0 .551-.449 1-1 1h-2c-.551 0-1-.449-1-1v-1a1 1 0 0 0-1-1H9a1 1 0 0 0-1 1v1c0 .551-.449 1-1 1H5c-.551 0-1-.449-1-1v-5c0-1.075.355-2.141 1-3l1.232-1.643.702.468A6.977 6.977 0 0 0 10.816 15h10.367a6.98 6.98 0 0 0 3.883-1.176l.701-.467L26.999 15c.645.859 1 1.925 1 3v5z" fill="#3e366a" opacity="1" data-original="#000000" class=""></path><circle cx="25" cy="18" r="1" fill="#3e366a" opacity="1" data-original="#000000" class=""></circle><circle cx="7" cy="18" r="1" fill="#3e366a" opacity="1" data-original="#000000" class=""></circle></g></svg>