<svg xmlns="http://www.w3.org/2000/svg" version="1.1" xmlns:xlink="http://www.w3.org/1999/xlink" width="512" height="512" x="0" y="0" viewBox="0 0 512 512" style="enable-background:new 0 0 512 512" xml:space="preserve" class=""><g><path d="M52.681 379.008h81.328v40.664c0 11.229-9.103 20.332-20.332 20.332H73.012c-11.229 0-20.332-9.103-20.332-20.332v-40.664zM459.319 379.008h-81.328v40.664c0 11.229 9.103 20.332 20.332 20.332h40.664c11.229 0 20.332-9.103 20.332-20.332v-40.664z" style="stroke-width:22;stroke-linecap:round;stroke-linejoin:round;stroke-miterlimit:10;" fill="none" stroke="#000000" stroke-width="22" stroke-linecap="round" stroke-linejoin="round" stroke-miterlimit="10" data-original="#000000"></path><path d="M450.17 214.32c28.073 0 50.83 22.757 50.83 50.83v113.859H11v-113.86c0-28.073 22.757-50.83 50.83-50.83" style="stroke-width:22;stroke-linecap:round;stroke-linejoin:round;stroke-miterlimit:10;" fill="none" stroke="#000000" stroke-width="22" stroke-linecap="round" stroke-linejoin="round" stroke-miterlimit="10" data-original="#000000"></path><path d="M195.004 305.813h121.992v73.195H195.004z" style="stroke-width:22;stroke-linecap:round;stroke-linejoin:round;stroke-miterlimit:10;" transform="rotate(-180 256 342.41)" fill="none" stroke="#000000" stroke-width="22" stroke-linecap="round" stroke-linejoin="round" stroke-miterlimit="10" data-original="#000000"></path><path d="M388.158 214.32c0-33.687-27.309-60.996-60.996-60.996s-60.996 27.309-60.996 60.996" style="stroke-width:22;stroke-linejoin:round;stroke-miterlimit:10;" fill="none" stroke="#000000" stroke-width="22" stroke-linejoin="round" stroke-miterlimit="10" data-original="#000000"></path><path d="M11 163.49h21.349l30.498 50.83M501 163.49h-21.349l-30.497 50.83" style="stroke-width:22;stroke-linecap:round;stroke-linejoin:round;stroke-miterlimit:10;" fill="none" stroke="#000000" stroke-width="22" stroke-linecap="round" stroke-linejoin="round" stroke-miterlimit="10" data-original="#000000"></path><circle cx="408.49" cy="296.664" r="30.498" style="stroke-width:22;stroke-linecap:round;stroke-linejoin:round;stroke-miterlimit:10;" transform="rotate(-73.154 408.495 296.659)" fill="none" stroke="#964586" stroke-width="22" stroke-linecap="round" stroke-linejoin="round" stroke-miterlimit="10" data-original="#33cccc" opacity="1"></circle><circle cx="103.51" cy="296.664" r="30.498" style="stroke-width:22;stroke-linecap:round;stroke-linejoin:round;stroke-miterlimit:10;" transform="rotate(-67.5 103.51 296.658)" fill="none" stroke="#964586" stroke-width="22" stroke-linecap="round" stroke-linejoin="round" stroke-miterlimit="10" data-original="#33cccc" opacity="1"></circle><path d="M141.851 71.996h228.297c22.695 0 42.639 15.045 48.874 36.866l30.131 105.458H62.847l30.131-105.458c6.234-21.822 26.179-36.866 48.873-36.866z" style="stroke-width:22;stroke-linecap:round;stroke-linejoin:round;stroke-miterlimit:10;" fill="none" stroke="#964586" stroke-width="22" stroke-linecap="round" stroke-linejoin="round" stroke-miterlimit="10" data-original="#33cccc" opacity="1"></path></g></svg>