<svg xmlns="http://www.w3.org/2000/svg" version="1.1" xmlns:xlink="http://www.w3.org/1999/xlink" width="512" height="512" x="0" y="0" viewBox="0 0 512 512" style="enable-background:new 0 0 512 512" xml:space="preserve" class=""><g><path d="M11 237.558h489.895V501H11zM11 283.198h489.895M500.895 455.36H11" style="stroke-width:22;stroke-linecap:round;stroke-linejoin:round;stroke-miterlimit:10;" fill="none" stroke="#000000" stroke-width="22" stroke-linecap="round" stroke-linejoin="round" stroke-miterlimit="10" data-original="#000000"></path><path d="M450.906 369.279h-51.537M338.113 369.279h-51.537M225.319 369.279h-51.537M112.526 369.279H60.989M146.879 56.371a36.618 36.618 0 0 1-1.063-8.787C145.816 27.379 162.209 11 182.43 11s36.615 16.379 36.615 36.583-16.393 36.583-36.615 36.583a36.464 36.464 0 0 1-17.764-4.587" style="stroke-width:22;stroke-linecap:round;stroke-linejoin:round;stroke-miterlimit:10;" fill="none" stroke="#964586" stroke-width="22" stroke-linecap="round" stroke-linejoin="round" stroke-miterlimit="10" data-original="#33cccc" opacity="1"></path><path d="M312.341 235.558V191.31M360.756 187.679a323.34 323.34 0 0 1-48.412 3.631c-34.459 0-67.659-5.44-98.767-15.49a158.712 158.712 0 0 0 45.937-43.482M326.03 135.153c-4.538.191-9.101.287-13.685.287-25.807 0-50.904-3.05-74.941-8.81a158.53 158.53 0 0 0 39.964-43.435M331.898 83.584c-6.468.389-12.988.586-19.554.586-17.995 0-35.65-1.48-52.834-4.33 23.236-16.97 41.661-40.14 52.834-67.08a157.625 157.625 0 0 0 28.845 45.501" style="stroke-width:22;stroke-linecap:round;stroke-linejoin:round;stroke-miterlimit:10;" fill="none" stroke="#000000" stroke-width="22" stroke-linecap="round" stroke-linejoin="round" stroke-miterlimit="10" data-original="#000000"></path><path d="M501 134.763c0 31.237-25.324 56.543-56.559 56.543-11.16 0-21.561-3.227-30.326-8.806-8.765 5.578-19.177 8.806-30.337 8.806-31.235 0-56.559-25.306-56.559-56.543 0-10.324 2.769-20.006 7.611-28.341a54.746 54.746 0 0 1-2.544-16.575c0-25.092 16.793-46.273 39.765-52.888C379.855 21.558 395.846 11 414.297 11c18.322 0 34.207 10.398 42.074 25.605 23.624 6.188 41.059 27.679 41.059 53.241 0 6.391-1.09 12.535-3.111 18.242 4.265 7.941 6.681 17.024 6.681 26.675zM414.289 236.558V84.166M379.225 122.516l34.884 23.847M448.994 122.516l-34.885 23.847M170.828 139.354c0 28.729-23.29 52.003-52.017 52.003-10.264 0-19.83-2.968-27.891-8.099-8.062 5.131-17.637 8.099-27.901 8.099C34.29 191.357 11 168.083 11 139.354c0-9.495 2.546-18.399 7-26.066a50.345 50.345 0 0 1-2.34-15.244c0-23.078 15.445-42.558 36.572-48.642 7.177-14.163 21.885-23.874 38.853-23.874 16.851 0 31.46 9.563 38.696 23.549 21.727 5.691 37.762 25.456 37.762 48.966a50.192 50.192 0 0 1-2.861 16.777c3.924 7.305 6.146 15.659 6.146 24.534zM91.079 231.896V92.821M122.997 128.091l-32.083 21.932" style="stroke-width:22;stroke-linecap:round;stroke-linejoin:round;stroke-miterlimit:10;" fill="none" stroke="#000000" stroke-width="22" stroke-linecap="round" stroke-linejoin="round" stroke-miterlimit="10" data-original="#000000"></path></g></svg>