<svg xmlns="http://www.w3.org/2000/svg" version="1.1" xmlns:xlink="http://www.w3.org/1999/xlink" width="512" height="512" x="0" y="0" viewBox="0 0 512 512" style="enable-background:new 0 0 512 512" xml:space="preserve" class=""><g><path d="M11 79.734h490v90.928H11z" style="fill-rule:evenodd;clip-rule:evenodd;stroke-width:22;stroke-linecap:round;stroke-linejoin:round;stroke-miterlimit:2.6131;" fill-rule="evenodd" clip-rule="evenodd" fill="none" stroke="#000000" stroke-width="22" stroke-linecap="round" stroke-linejoin="round" stroke-miterlimit="2.6131" data-original="#000000" class=""></path><path d="M11 170.661V476h490V170.661M124.66 69.734V56.206c0-11.114-9.092-20.206-20.206-20.206h0c-11.114 0-20.206 9.094-20.206 20.206v51.03c0 11.113 9.092 20.206 20.206 20.206M225.691 69.734V56.206c0-11.114-9.092-20.206-20.206-20.206h0c-11.113 0-20.206 9.094-20.206 20.206v51.03c0 11.113 9.092 20.206 20.206 20.206M326.721 69.734V56.206c0-11.114-9.092-20.206-20.206-20.206h0c-11.113 0-20.206 9.094-20.206 20.206v51.03c0 11.113 9.092 20.206 20.206 20.206M427.752 69.734V56.206c0-11.114-9.092-20.206-20.206-20.206h0c-11.113 0-20.206 9.094-20.206 20.206v51.03c0 11.113 9.092 20.206 20.206 20.206" style="fill-rule:evenodd;clip-rule:evenodd;stroke-width:22;stroke-linecap:round;stroke-linejoin:round;stroke-miterlimit:2.6131;" fill-rule="evenodd" clip-rule="evenodd" fill="none" stroke="#000000" stroke-width="22" stroke-linecap="round" stroke-linejoin="round" stroke-miterlimit="2.6131" data-original="#000000" class=""></path><path d="M111.522 239.877H83.269M189.772 239.877h-28.254M268.022 239.877h-28.254M346.271 239.877h-28.253M424.521 239.877h-28.253M111.522 294.877H83.269M189.772 294.877h-28.254M268.022 294.877h-28.254M346.271 294.877h-28.253M424.521 294.877h-28.253M111.522 349.876H83.269M189.772 349.876h-28.254M268.022 349.876h-28.254M346.271 349.876h-28.253M424.521 349.876h-28.253M111.522 404.876H83.269M189.772 404.876h-28.254M268.022 404.876h-28.254" style="fill-rule:evenodd;clip-rule:evenodd;stroke-width:22;stroke-linecap:round;stroke-linejoin:round;stroke-miterlimit:2.6131;" fill-rule="evenodd" clip-rule="evenodd" fill="none" stroke="#964586" stroke-width="22" stroke-linecap="round" stroke-linejoin="round" stroke-miterlimit="2.6131" data-original="#33cccc" opacity="1"></path></g></svg>